<mxfile host="Electron" modified="2024-05-25T12:49:52.487Z" agent="Mozilla/5.0 (Windows NT 10.0; Win64; x64) AppleWebKit/537.36 (KHTML, like Gecko) draw.io/24.4.8 Chrome/124.0.6367.207 Electron/30.0.6 Safari/537.36" etag="6i2Zxvdd9zZnurUJ3x3Y" version="24.4.8" type="device">
  <diagram name="Strona-1" id="iYG14-VDdW40Y5uh9Iwy">
    <mxGraphModel dx="1843" dy="887" grid="1" gridSize="10" guides="1" tooltips="1" connect="1" arrows="1" fold="1" page="1" pageScale="1" pageWidth="827" pageHeight="1169" math="0" shadow="0">
      <root>
        <mxCell id="0" />
        <mxCell id="1" parent="0" />
        <mxCell id="BZ07um20TGvT9vMUGnsm-49" value="" style="ellipse;whiteSpace=wrap;html=1;aspect=fixed;" vertex="1" parent="1">
          <mxGeometry x="390" y="320" width="80" height="80" as="geometry" />
        </mxCell>
        <mxCell id="BZ07um20TGvT9vMUGnsm-1" value="Database" style="strokeWidth=2;html=1;shape=mxgraph.flowchart.database;whiteSpace=wrap;" vertex="1" parent="1">
          <mxGeometry x="900" y="134" width="80" height="70" as="geometry" />
        </mxCell>
        <mxCell id="BZ07um20TGvT9vMUGnsm-2" value="" style="endArrow=none;html=1;rounded=0;" edge="1" parent="1">
          <mxGeometry width="50" height="50" relative="1" as="geometry">
            <mxPoint x="944" y="244" as="sourcePoint" />
            <mxPoint x="1024" y="164" as="targetPoint" />
          </mxGeometry>
        </mxCell>
        <mxCell id="BZ07um20TGvT9vMUGnsm-5" value="" style="rounded=0;whiteSpace=wrap;html=1;" vertex="1" parent="1">
          <mxGeometry x="1010" y="194" width="40" height="30" as="geometry" />
        </mxCell>
        <mxCell id="BZ07um20TGvT9vMUGnsm-6" value="" style="rounded=0;whiteSpace=wrap;html=1;" vertex="1" parent="1">
          <mxGeometry x="1000" y="204" width="40" height="30" as="geometry" />
        </mxCell>
        <mxCell id="BZ07um20TGvT9vMUGnsm-7" value="" style="rounded=0;whiteSpace=wrap;html=1;" vertex="1" parent="1">
          <mxGeometry x="990" y="214" width="40" height="30" as="geometry" />
        </mxCell>
        <mxCell id="BZ07um20TGvT9vMUGnsm-8" value="tensor" style="text;html=1;align=center;verticalAlign=middle;resizable=0;points=[];autosize=1;strokeColor=none;fillColor=none;" vertex="1" parent="1">
          <mxGeometry x="970" y="242" width="60" height="30" as="geometry" />
        </mxCell>
        <mxCell id="BZ07um20TGvT9vMUGnsm-9" value="" style="whiteSpace=wrap;html=1;shape=mxgraph.basic.document" vertex="1" parent="1">
          <mxGeometry x="10" y="90" width="70" height="100" as="geometry" />
        </mxCell>
        <mxCell id="BZ07um20TGvT9vMUGnsm-11" value="PDF" style="rounded=0;whiteSpace=wrap;html=1;" vertex="1" parent="1">
          <mxGeometry x="10" y="140" width="70" height="20" as="geometry" />
        </mxCell>
        <mxCell id="BZ07um20TGvT9vMUGnsm-12" value="" style="whiteSpace=wrap;html=1;shape=mxgraph.basic.document" vertex="1" parent="1">
          <mxGeometry x="200" y="90" width="70" height="100" as="geometry" />
        </mxCell>
        <mxCell id="BZ07um20TGvT9vMUGnsm-13" value="PY" style="rounded=0;whiteSpace=wrap;html=1;" vertex="1" parent="1">
          <mxGeometry x="200" y="140" width="70" height="20" as="geometry" />
        </mxCell>
        <mxCell id="BZ07um20TGvT9vMUGnsm-14" value="" style="html=1;verticalLabelPosition=bottom;align=center;labelBackgroundColor=#ffffff;verticalAlign=top;strokeWidth=2;strokeColor=#000000;shadow=0;dashed=0;shape=mxgraph.ios7.icons.documents;" vertex="1" parent="1">
          <mxGeometry x="420" y="90" width="60" height="80" as="geometry" />
        </mxCell>
        <mxCell id="BZ07um20TGvT9vMUGnsm-16" value="" style="html=1;verticalLabelPosition=bottom;align=center;labelBackgroundColor=#ffffff;verticalAlign=top;strokeWidth=2;strokeColor=#000000;shadow=0;dashed=0;shape=mxgraph.ios7.icons.documents;" vertex="1" parent="1">
          <mxGeometry x="400" y="110" width="60" height="80" as="geometry" />
        </mxCell>
        <mxCell id="BZ07um20TGvT9vMUGnsm-17" value="original data" style="text;html=1;align=center;verticalAlign=middle;resizable=0;points=[];autosize=1;strokeColor=none;fillColor=none;" vertex="1" parent="1">
          <mxGeometry y="190" width="90" height="30" as="geometry" />
        </mxCell>
        <mxCell id="BZ07um20TGvT9vMUGnsm-18" value="preprocessing" style="text;html=1;align=center;verticalAlign=middle;resizable=0;points=[];autosize=1;strokeColor=none;fillColor=none;" vertex="1" parent="1">
          <mxGeometry x="185" y="188" width="100" height="30" as="geometry" />
        </mxCell>
        <mxCell id="BZ07um20TGvT9vMUGnsm-19" value="chunking" style="text;html=1;align=center;verticalAlign=middle;resizable=0;points=[];autosize=1;strokeColor=none;fillColor=none;" vertex="1" parent="1">
          <mxGeometry x="410" y="188" width="70" height="30" as="geometry" />
        </mxCell>
        <mxCell id="BZ07um20TGvT9vMUGnsm-20" value="" style="ellipse;whiteSpace=wrap;html=1;aspect=fixed;" vertex="1" parent="1">
          <mxGeometry x="640" y="280" width="20" height="20" as="geometry" />
        </mxCell>
        <mxCell id="BZ07um20TGvT9vMUGnsm-21" value="" style="ellipse;whiteSpace=wrap;html=1;aspect=fixed;" vertex="1" parent="1">
          <mxGeometry x="640" y="320" width="20" height="20" as="geometry" />
        </mxCell>
        <mxCell id="BZ07um20TGvT9vMUGnsm-23" value="" style="ellipse;whiteSpace=wrap;html=1;aspect=fixed;direction=east;" vertex="1" parent="1">
          <mxGeometry x="700" y="300" width="20" height="20" as="geometry" />
        </mxCell>
        <mxCell id="BZ07um20TGvT9vMUGnsm-24" value="" style="ellipse;whiteSpace=wrap;html=1;aspect=fixed;" vertex="1" parent="1">
          <mxGeometry x="700" y="260" width="20" height="20" as="geometry" />
        </mxCell>
        <mxCell id="BZ07um20TGvT9vMUGnsm-25" value="" style="ellipse;whiteSpace=wrap;html=1;aspect=fixed;" vertex="1" parent="1">
          <mxGeometry x="700" y="340" width="20" height="20" as="geometry" />
        </mxCell>
        <mxCell id="BZ07um20TGvT9vMUGnsm-27" value="" style="ellipse;whiteSpace=wrap;html=1;aspect=fixed;" vertex="1" parent="1">
          <mxGeometry x="760" y="300" width="20" height="20" as="geometry" />
        </mxCell>
        <mxCell id="BZ07um20TGvT9vMUGnsm-30" value="" style="endArrow=none;html=1;rounded=0;entryX=1;entryY=0.5;entryDx=0;entryDy=0;exitX=0;exitY=0.5;exitDx=0;exitDy=0;" edge="1" parent="1" source="BZ07um20TGvT9vMUGnsm-24" target="BZ07um20TGvT9vMUGnsm-20">
          <mxGeometry width="50" height="50" relative="1" as="geometry">
            <mxPoint x="660" y="350" as="sourcePoint" />
            <mxPoint x="710" y="300" as="targetPoint" />
          </mxGeometry>
        </mxCell>
        <mxCell id="BZ07um20TGvT9vMUGnsm-31" value="" style="endArrow=none;html=1;rounded=0;entryX=1;entryY=0.5;entryDx=0;entryDy=0;exitX=0;exitY=0.5;exitDx=0;exitDy=0;" edge="1" parent="1" source="BZ07um20TGvT9vMUGnsm-23" target="BZ07um20TGvT9vMUGnsm-20">
          <mxGeometry width="50" height="50" relative="1" as="geometry">
            <mxPoint x="720" y="303" as="sourcePoint" />
            <mxPoint x="700" y="313" as="targetPoint" />
          </mxGeometry>
        </mxCell>
        <mxCell id="BZ07um20TGvT9vMUGnsm-32" value="" style="endArrow=none;html=1;rounded=0;entryX=1;entryY=0.5;entryDx=0;entryDy=0;exitX=0;exitY=0.5;exitDx=0;exitDy=0;" edge="1" parent="1" source="BZ07um20TGvT9vMUGnsm-25" target="BZ07um20TGvT9vMUGnsm-20">
          <mxGeometry width="50" height="50" relative="1" as="geometry">
            <mxPoint x="710" y="320" as="sourcePoint" />
            <mxPoint x="690" y="308" as="targetPoint" />
          </mxGeometry>
        </mxCell>
        <mxCell id="BZ07um20TGvT9vMUGnsm-34" value="" style="endArrow=none;html=1;rounded=0;entryX=0;entryY=0.5;entryDx=0;entryDy=0;exitX=1;exitY=0.5;exitDx=0;exitDy=0;" edge="1" parent="1" source="BZ07um20TGvT9vMUGnsm-21" target="BZ07um20TGvT9vMUGnsm-24">
          <mxGeometry width="50" height="50" relative="1" as="geometry">
            <mxPoint x="670" y="360" as="sourcePoint" />
            <mxPoint x="720" y="310" as="targetPoint" />
          </mxGeometry>
        </mxCell>
        <mxCell id="BZ07um20TGvT9vMUGnsm-35" value="" style="endArrow=none;html=1;rounded=0;entryX=0;entryY=0.5;entryDx=0;entryDy=0;exitX=1;exitY=0.5;exitDx=0;exitDy=0;" edge="1" parent="1" source="BZ07um20TGvT9vMUGnsm-21" target="BZ07um20TGvT9vMUGnsm-23">
          <mxGeometry width="50" height="50" relative="1" as="geometry">
            <mxPoint x="700" y="328" as="sourcePoint" />
            <mxPoint x="720" y="298" as="targetPoint" />
          </mxGeometry>
        </mxCell>
        <mxCell id="BZ07um20TGvT9vMUGnsm-36" value="" style="endArrow=none;html=1;rounded=0;entryX=0;entryY=0.5;entryDx=0;entryDy=0;exitX=1;exitY=0.5;exitDx=0;exitDy=0;" edge="1" parent="1" source="BZ07um20TGvT9vMUGnsm-21" target="BZ07um20TGvT9vMUGnsm-25">
          <mxGeometry width="50" height="50" relative="1" as="geometry">
            <mxPoint x="700" y="333" as="sourcePoint" />
            <mxPoint x="720" y="325" as="targetPoint" />
          </mxGeometry>
        </mxCell>
        <mxCell id="BZ07um20TGvT9vMUGnsm-37" value="" style="endArrow=none;html=1;rounded=0;exitX=1;exitY=0.5;exitDx=0;exitDy=0;entryX=0;entryY=0.5;entryDx=0;entryDy=0;" edge="1" parent="1" source="BZ07um20TGvT9vMUGnsm-25" target="BZ07um20TGvT9vMUGnsm-27">
          <mxGeometry width="50" height="50" relative="1" as="geometry">
            <mxPoint x="680" y="350" as="sourcePoint" />
            <mxPoint x="730" y="300" as="targetPoint" />
          </mxGeometry>
        </mxCell>
        <mxCell id="BZ07um20TGvT9vMUGnsm-38" value="" style="endArrow=none;html=1;rounded=0;entryX=0;entryY=0.5;entryDx=0;entryDy=0;exitX=1;exitY=0.5;exitDx=0;exitDy=0;" edge="1" parent="1" source="BZ07um20TGvT9vMUGnsm-23" target="BZ07um20TGvT9vMUGnsm-27">
          <mxGeometry width="50" height="50" relative="1" as="geometry">
            <mxPoint x="720" y="310" as="sourcePoint" />
            <mxPoint x="740" y="302" as="targetPoint" />
          </mxGeometry>
        </mxCell>
        <mxCell id="BZ07um20TGvT9vMUGnsm-39" value="" style="endArrow=none;html=1;rounded=0;entryX=0;entryY=0.5;entryDx=0;entryDy=0;exitX=1;exitY=0.5;exitDx=0;exitDy=0;" edge="1" parent="1" source="BZ07um20TGvT9vMUGnsm-24" target="BZ07um20TGvT9vMUGnsm-27">
          <mxGeometry width="50" height="50" relative="1" as="geometry">
            <mxPoint x="720" y="353" as="sourcePoint" />
            <mxPoint x="740" y="345" as="targetPoint" />
          </mxGeometry>
        </mxCell>
        <mxCell id="BZ07um20TGvT9vMUGnsm-40" value="embedding" style="text;html=1;align=center;verticalAlign=middle;resizable=0;points=[];autosize=1;strokeColor=none;fillColor=none;" vertex="1" parent="1">
          <mxGeometry x="670" y="360" width="80" height="30" as="geometry" />
        </mxCell>
        <mxCell id="BZ07um20TGvT9vMUGnsm-41" value="" style="shape=flexArrow;endArrow=classic;html=1;rounded=0;" edge="1" parent="1">
          <mxGeometry width="50" height="50" relative="1" as="geometry">
            <mxPoint x="90" y="155" as="sourcePoint" />
            <mxPoint x="190" y="155" as="targetPoint" />
          </mxGeometry>
        </mxCell>
        <mxCell id="BZ07um20TGvT9vMUGnsm-43" value="" style="shape=flexArrow;endArrow=classic;html=1;rounded=0;" edge="1" parent="1">
          <mxGeometry width="50" height="50" relative="1" as="geometry">
            <mxPoint x="280" y="150" as="sourcePoint" />
            <mxPoint x="390" y="150" as="targetPoint" />
          </mxGeometry>
        </mxCell>
        <mxCell id="BZ07um20TGvT9vMUGnsm-44" value="" style="shape=flexArrow;endArrow=classic;html=1;rounded=0;" edge="1" parent="1">
          <mxGeometry width="50" height="50" relative="1" as="geometry">
            <mxPoint x="490" y="180" as="sourcePoint" />
            <mxPoint x="640" y="270" as="targetPoint" />
          </mxGeometry>
        </mxCell>
        <mxCell id="BZ07um20TGvT9vMUGnsm-45" value="" style="shape=flexArrow;endArrow=classic;html=1;rounded=0;" edge="1" parent="1">
          <mxGeometry width="50" height="50" relative="1" as="geometry">
            <mxPoint x="750" y="272" as="sourcePoint" />
            <mxPoint x="890" y="200" as="targetPoint" />
          </mxGeometry>
        </mxCell>
        <mxCell id="BZ07um20TGvT9vMUGnsm-46" value="" style="shape=actor;whiteSpace=wrap;html=1;" vertex="1" parent="1">
          <mxGeometry x="207.5" y="310" width="55" height="80" as="geometry" />
        </mxCell>
        <mxCell id="BZ07um20TGvT9vMUGnsm-47" value="user" style="text;html=1;align=center;verticalAlign=middle;resizable=0;points=[];autosize=1;strokeColor=none;fillColor=none;" vertex="1" parent="1">
          <mxGeometry x="210" y="388" width="50" height="30" as="geometry" />
        </mxCell>
        <mxCell id="BZ07um20TGvT9vMUGnsm-48" value="" style="sketch=0;outlineConnect=0;fontColor=#232F3E;gradientColor=none;fillColor=#232F3D;strokeColor=none;dashed=0;verticalLabelPosition=bottom;verticalAlign=top;align=center;html=1;fontSize=12;fontStyle=0;aspect=fixed;pointerEvents=1;shape=mxgraph.aws4.question;" vertex="1" parent="1">
          <mxGeometry x="416.86" y="335" width="26.28" height="50" as="geometry" />
        </mxCell>
        <mxCell id="BZ07um20TGvT9vMUGnsm-50" value="query" style="text;html=1;align=center;verticalAlign=middle;resizable=0;points=[];autosize=1;strokeColor=none;fillColor=none;" vertex="1" parent="1">
          <mxGeometry x="405" y="400" width="50" height="30" as="geometry" />
        </mxCell>
        <mxCell id="BZ07um20TGvT9vMUGnsm-51" value="" style="shape=flexArrow;endArrow=classic;html=1;rounded=0;" edge="1" parent="1">
          <mxGeometry width="50" height="50" relative="1" as="geometry">
            <mxPoint x="270" y="360" as="sourcePoint" />
            <mxPoint x="380" y="360" as="targetPoint" />
          </mxGeometry>
        </mxCell>
        <mxCell id="BZ07um20TGvT9vMUGnsm-52" value="" style="shape=flexArrow;endArrow=classic;html=1;rounded=0;" edge="1" parent="1">
          <mxGeometry width="50" height="50" relative="1" as="geometry">
            <mxPoint x="480" y="360" as="sourcePoint" />
            <mxPoint x="630" y="330" as="targetPoint" />
          </mxGeometry>
        </mxCell>
        <mxCell id="BZ07um20TGvT9vMUGnsm-54" value="" style="shape=flexArrow;endArrow=classic;html=1;rounded=0;" edge="1" parent="1">
          <mxGeometry width="50" height="50" relative="1" as="geometry">
            <mxPoint x="770" y="360" as="sourcePoint" />
            <mxPoint x="900" y="410" as="targetPoint" />
          </mxGeometry>
        </mxCell>
        <mxCell id="BZ07um20TGvT9vMUGnsm-57" value="search" style="text;html=1;align=center;verticalAlign=middle;resizable=0;points=[];autosize=1;strokeColor=none;fillColor=none;" vertex="1" parent="1">
          <mxGeometry x="900" y="450" width="60" height="30" as="geometry" />
        </mxCell>
        <mxCell id="BZ07um20TGvT9vMUGnsm-59" value="" style="shape=flexArrow;endArrow=classic;html=1;rounded=0;" edge="1" parent="1">
          <mxGeometry width="50" height="50" relative="1" as="geometry">
            <mxPoint x="930" y="370" as="sourcePoint" />
            <mxPoint x="930" y="250" as="targetPoint" />
          </mxGeometry>
        </mxCell>
        <mxCell id="BZ07um20TGvT9vMUGnsm-60" value="" style="shape=flexArrow;endArrow=classic;html=1;rounded=0;" edge="1" parent="1">
          <mxGeometry width="50" height="50" relative="1" as="geometry">
            <mxPoint x="1040" y="260" as="sourcePoint" />
            <mxPoint x="1200" y="420" as="targetPoint" />
          </mxGeometry>
        </mxCell>
        <mxCell id="BZ07um20TGvT9vMUGnsm-61" value="" style="ellipse;whiteSpace=wrap;html=1;aspect=fixed;" vertex="1" parent="1">
          <mxGeometry x="1360" y="420" width="70" height="70" as="geometry" />
        </mxCell>
        <mxCell id="BZ07um20TGvT9vMUGnsm-62" value="" style="sketch=0;outlineConnect=0;fontColor=#232F3E;gradientColor=none;fillColor=#232F3D;strokeColor=none;dashed=0;verticalLabelPosition=bottom;verticalAlign=top;align=center;html=1;fontSize=12;fontStyle=0;aspect=fixed;pointerEvents=1;shape=mxgraph.aws4.question;" vertex="1" parent="1">
          <mxGeometry x="1381.2" y="430" width="27.59" height="52.5" as="geometry" />
        </mxCell>
        <mxCell id="BZ07um20TGvT9vMUGnsm-63" value="" style="shape=cross;whiteSpace=wrap;html=1;size=0.18333341810438242;" vertex="1" parent="1">
          <mxGeometry x="1300" y="430" width="40" height="42.5" as="geometry" />
        </mxCell>
        <mxCell id="BZ07um20TGvT9vMUGnsm-64" value="" style="html=1;verticalLabelPosition=bottom;align=center;labelBackgroundColor=#ffffff;verticalAlign=top;strokeWidth=2;strokeColor=#000000;shadow=0;dashed=0;shape=mxgraph.ios7.icons.documents;" vertex="1" parent="1">
          <mxGeometry x="1220" y="420" width="50" height="60" as="geometry" />
        </mxCell>
        <mxCell id="BZ07um20TGvT9vMUGnsm-65" value="retrieved documents" style="text;html=1;align=center;verticalAlign=middle;resizable=0;points=[];autosize=1;strokeColor=none;fillColor=none;" vertex="1" parent="1">
          <mxGeometry x="1180" y="480" width="130" height="30" as="geometry" />
        </mxCell>
        <mxCell id="BZ07um20TGvT9vMUGnsm-67" value="query" style="text;html=1;align=center;verticalAlign=middle;resizable=0;points=[];autosize=1;strokeColor=none;fillColor=none;" vertex="1" parent="1">
          <mxGeometry x="1369.99" y="482.5" width="50" height="30" as="geometry" />
        </mxCell>
        <mxCell id="BZ07um20TGvT9vMUGnsm-68" value="" style="sketch=0;outlineConnect=0;fontColor=#232F3E;gradientColor=none;fillColor=#000000;strokeColor=none;dashed=0;verticalLabelPosition=bottom;verticalAlign=top;align=center;html=1;fontSize=12;fontStyle=0;aspect=fixed;pointerEvents=1;shape=mxgraph.aws4.redshift_query_editor_v20_light;" vertex="1" parent="1">
          <mxGeometry x="910" y="385" width="60" height="60" as="geometry" />
        </mxCell>
        <mxCell id="BZ07um20TGvT9vMUGnsm-70" value="" style="sketch=0;points=[[0,0,0],[0.25,0,0],[0.5,0,0],[0.75,0,0],[1,0,0],[0,1,0],[0.25,1,0],[0.5,1,0],[0.75,1,0],[1,1,0],[0,0.25,0],[0,0.5,0],[0,0.75,0],[1,0.25,0],[1,0.5,0],[1,0.75,0]];outlineConnect=0;fontColor=#232F3E;fillColor=#FFFFFF;strokeColor=#000000;dashed=0;verticalLabelPosition=bottom;verticalAlign=top;align=center;html=1;fontSize=12;fontStyle=0;aspect=fixed;shape=mxgraph.aws4.resourceIcon;resIcon=mxgraph.aws4.machine_learning;" vertex="1" parent="1">
          <mxGeometry x="866" y="600" width="128" height="128" as="geometry" />
        </mxCell>
        <mxCell id="BZ07um20TGvT9vMUGnsm-71" value="" style="shape=flexArrow;endArrow=classic;html=1;rounded=0;exitX=-0.036;exitY=1.262;exitDx=0;exitDy=0;exitPerimeter=0;" edge="1" parent="1" source="BZ07um20TGvT9vMUGnsm-65">
          <mxGeometry width="50" height="50" relative="1" as="geometry">
            <mxPoint x="1210" y="520" as="sourcePoint" />
            <mxPoint x="1000" y="620" as="targetPoint" />
          </mxGeometry>
        </mxCell>
        <mxCell id="BZ07um20TGvT9vMUGnsm-72" value="Generate answer" style="text;html=1;align=center;verticalAlign=middle;resizable=0;points=[];autosize=1;strokeColor=none;fillColor=none;" vertex="1" parent="1">
          <mxGeometry x="874" y="728" width="120" height="30" as="geometry" />
        </mxCell>
        <mxCell id="BZ07um20TGvT9vMUGnsm-73" value="" style="shape=flexArrow;endArrow=classic;html=1;rounded=0;exitX=-0.036;exitY=1.262;exitDx=0;exitDy=0;exitPerimeter=0;" edge="1" parent="1">
          <mxGeometry width="50" height="50" relative="1" as="geometry">
            <mxPoint x="866" y="656" as="sourcePoint" />
            <mxPoint x="270" y="430" as="targetPoint" />
          </mxGeometry>
        </mxCell>
      </root>
    </mxGraphModel>
  </diagram>
</mxfile>
